<?xml version="1.0" encoding="utf-8"?>
<!-- Generator: Adobe Illustrator 28.2.0, SVG Export Plug-In . SVG Version: 6.00 Build 0)  -->
<svg version="1.1" id="Layer_2" xmlns="http://www.w3.org/2000/svg" xmlns:xlink="http://www.w3.org/1999/xlink" x="0px" y="0px"
	 viewBox="0 0 2000 1120.73" style="enable-background:new 0 0 2000 1120.73;" xml:space="preserve">
<style type="text/css">
	.st0{fill:#ABDDF4;}
	.st1{fill:#BCF4FF;}
	.st2{fill:#137AB0;}
	.st3{fill:#003144;}
	.st4{fill:#127EAF;}
	.st5{fill:#43A4DB;}
	.st6{fill:#043141;}
	.st7{fill:#F9BCAB;}
	.st8{fill:#FABDA8;}
	.st9{fill:#FBBCAA;}
	.st10{fill:#EC8781;}
	.st11{fill:#0B3042;}
	.st12{fill:#E77D80;}
	.st13{fill:#FFFFFF;}
	.st14{fill:#064B6C;}
	.st15{fill:#003145;}
	.st16{fill:#053045;}
	.st17{fill:#0C7EB2;}
	.st18{fill:#44A3DB;}
</style>
<path class="st0" d="M1022.21,43.07c0,0-208,128.65-510.99,201.99c-104.6,28.86-290.96,203.19-151.49,383.54
	s579.52,413.6,693.74,459.29c224.84,21.64,372.72-36.07,431.64-153.9c58.91-117.83,150.29-455.68,12.02-781.51
	C1360.06-73.56,1083.36,9.08,1022.21,43.07z"/>
<path class="st1" d="M492.85,781.26l-202.81-82.61c-4.82-1.96-7.13-7.46-5.17-12.27c1.96-4.82,7.46-7.13,12.28-5.17l190.75,77.7
	l222.83-240.31l257.55-25.41l211,188.24l405.83-118.47l162.45,118.97c4.2,3.07,5.11,8.97,2.03,13.16c-3.07,4.2-8.97,5.1-13.16,2.03
	l-154.96-113.48l-406.94,118.79L961.91,512.74l-242.22,23.89L492.85,781.26z"/>
<path class="st2" d="M312.83,832c-2.18,0-4.37-0.75-6.15-2.29c-3.94-3.4-4.38-9.34-0.98-13.28l193.89-224.76l222.89,130.36
	l225.74-200.83l214.03-37.06l122.67-173.48l167.4,139.7l270.77-355.67c3.15-4.14,9.06-4.94,13.2-1.79c4.14,3.15,4.94,9.06,1.79,13.2
	l-282.7,371.34l-166.85-139.24l-115.39,163.17l-216.41,37.48L724.78,745.19L503.61,615.84L319.96,828.73
	C318.1,830.89,315.47,832,312.83,832z"/>
<path class="st3" d="M1990.51,1120.73H9.49c-5.24,0-9.49-4.25-9.49-9.49l0-25.7c0-5.24,4.25-9.49,9.49-9.49h1981.03
	c5.24,0,9.49,4.25,9.49,9.49v25.7C2000,1116.48,1995.75,1120.73,1990.51,1120.73z"/>
<g>
	<g>
		<rect x="332.07" y="966.46" class="st4" width="79.95" height="109.6"/>
		<rect x="412.02" y="891.91" class="st5" width="78.75" height="184.14"/>
	</g>
	<g>
		<rect x="615.52" y="951.73" class="st4" width="79.95" height="124.63"/>
		<rect x="694.87" y="824.58" class="st5" width="78.75" height="251.47"/>
	</g>
	<g>
		<rect x="899.87" y="734.41" class="st4" width="79.95" height="341.8"/>
		<rect x="979.22" y="573.3" class="st5" width="78.75" height="502.61"/>
	</g>
	<g>
		<rect x="1200.05" y="892.31" class="st4" width="79.95" height="183.74"/>
		<rect x="1279.4" y="663.87" class="st5" width="78.75" height="411.89"/>
	</g>
	<g>
		<rect x="1507.35" y="892.16" class="st4" width="79.95" height="183.74"/>
		<rect x="1586.7" y="663.72" class="st5" width="78.75" height="411.89"/>
	</g>
</g>
<path class="st6" d="M792.56,987.8l32.16,36.07l29.16-18.03l1.8,23.14l23.14-1.8l41.18-39.38l30.66,34.57l31.26-17.43l6.61,62.22
	c0,0-3.61,8.9-11.12,8.9c-7.51,0-280.14,0-280.14,0v-23.03c0,0,11.12-30.36,52.6-25.55C770.32,1007.64,792.56,987.8,792.56,987.8z"
	/>
<path class="st7" d="M986.94,535.42c0,0-2.61,17.83,8.82,46.39c11.42,28.56,17.63,39.78,17.63,39.78s9.42,3.01,6.21-6.41
	c-3.21-9.42-3.21-9.42-3.21-9.42s15.23,30.66,16.43,11.42c4.41,3.81,16.63,10.62,14.83-1.8c4.81-1,17.03,0,11.82-10.02
	s-25.25-38.27-8.42-30.86s17.03-9.42,7.61-15.43c-9.42-6.01-21.25-7.61-32.87-33.46c-11.62-25.85-39.13,3.41-39.13,3.41
	L986.94,535.42z"/>
<path class="st8" d="M627.44,364.49c0,0-48.89,1.2-72.14-38.47s-2-74.95-2-74.95l38.07-5.61l20.04,9.62c0,0-1.2,20.04,9.22,36.47
	c10.42,16.43,20.44,31.66,16.03,50.1C632.25,360.08,627.44,364.49,627.44,364.49z"/>
<g>
	<path id="Basse" class="st9" d="M847.07,141.86c0,0-72.94,116.43,0,131.66c8.02,0.2,11.5,0,11.5,0v35.87
		c0,0,55.83,14.23,54.63,12.02c-1.2-2.2-7.82-14.23-7.61-15.23c0.2-1,0.4-48.29,0.4-48.29s7.61,14.43,42.48-8.62
		s62.52-93.58-2.4-113.82c-11.02-4.61-47.89-2.81-58.91-26.05c-3.41-4.61-22.24-16.43-35.27-1.6
		C838.85,122.62,847.07,141.86,847.07,141.86z"/>
	<path class="st10" d="M848.67,273.55c-27.03-22.2-5.57-124.89-5.55-124.98c-14.16,24.98-58.4,111.93,3.95,124.95
		C847.64,273.53,848.14,273.54,848.67,273.55z"/>
	<path class="st11" d="M946.06,135.45c-11.02-4.61-47.89-2.81-58.91-26.05c-3.41-4.61-22.24-16.43-35.27-1.6s-4.81,34.07-4.81,34.07
		s11.42,21.84,50.5,23.04c2.81,0.6,12.82,0.4,11.62,14.63c-1.2,14.23-1.2,17.83,8.42,21.24c9.62,3.41,31.06,9.62,13.43,22.64
		c-13.03,9.22-39.68,17.03-25.05,34.47c0.63,0.75,1.34,1.46,2.08,2.15c4.06,2.92,14.99,6.04,40.41-10.76
		C983.33,226.22,1010.98,155.69,946.06,135.45z"/>
	<path class="st12" d="M894.56,266.9c0,0-23.3,9.36-35.99,6.61v11.97C862.97,284.48,887.63,278.39,894.56,266.9z"/>
</g>
<path class="st13" d="M856.89,295.36c0,0,25.65,23.85,53.9,9.82c28.25-14.03,16.83,36.67,16.83,36.67l-7.92,211.91
	c0,0-79.95-14.43-136.46-11.72c-11.12-26.45,3.91-69.13,3.91-69.13l36.37-157.51l18.03-22.54L856.89,295.36z"/>
<polygon class="st13" points="794.97,956.24 794.97,1009.74 813.9,1031.93 844.26,1024.77 854.22,1010.27 861.69,950.23 "/>
<polygon class="st13" points="919.41,960.45 919.41,1008.84 944.96,1031.93 978.92,1024.17 978.92,1009.74 984.93,942.11 
	914.8,935.8 "/>
<path class="st14" d="M762.5,537.23l194.78,20.43c0,0,0,48.1,36.67,390.77c-16.23,0-90.48,0-90.48,0s-20.44-114.82-25.25-125.94
	c-2.71,33.97-6.31,128.65-6.31,128.65l-88.97-4.51L762.5,537.23z"/>
<path d="M944.06,652.55c-0.25,0-0.51-0.02-0.77-0.06c-68.92-11.38-66.49-65.7-66.45-66.25c0.16-2.59,2.38-4.61,4.98-4.42
	c2.59,0.15,4.57,2.38,4.42,4.96c-0.1,1.91-1.73,46.45,58.59,56.41c2.57,0.43,4.3,2.85,3.88,5.42
	C948.32,650.91,946.32,652.55,944.06,652.55z"/>
<path class="st15" d="M847.27,285.64l-66.8,4.18c-1.79,0.11-3.48,0.88-4.75,2.16l-62.58,63.5c-4.03,4.09-10.31,4.91-15.26,2.01
	l-47.24-27.73c-6.26-3.68-14.33-1.16-17.39,5.42l-30.05,64.6c-1.92,4.12-0.6,9.03,3.13,11.64l84.99,59.43
	c2.56,1.79,5.72,2.47,8.79,1.91l41.09-7.59c7.72-1.43,14.75,4.73,14.35,12.57l-0.88,63.82c-0.57,7.23,4.71,13.61,11.92,14.4
	l15.89,1.62c6.35,0.65,12.21-3.47,13.76-9.66l61.92-248.06C860.1,292.69,854.7,285.64,847.27,285.64L847.27,285.64z"/>
<path class="st15" d="M996.25,349.76l-76.65-53.86c-5.4-3.8-12.86-0.02-12.99,6.58l-5.06,251.59c-0.1,4.83,3.79,8.79,8.61,8.79
	h47.76c3.23,0,5.9-2.52,6.08-5.75l1.35-24.02c0.22-3.88,4.68-5.95,7.79-3.62l11.38,8.56l86.61,5.16c6.13,0.36,10.47-5.88,7.99-11.5
	l-77.34-175.17C1000.6,353.8,998.68,351.47,996.25,349.76z"/>
<polygon class="st16" points="874.32,972.47 875.72,952.03 871.91,951.13 782.94,946.62 779.33,946.62 780.54,965.46 "/>
<polygon class="st16" points="997.76,968.06 997.76,949.22 993.95,948.42 903.48,948.42 900.17,948.42 902.37,968.06 "/>
<g>
	<circle class="st17" cx="480.86" cy="216.5" r="143.38"/>
	<circle class="st18" cx="480.86" cy="216.81" r="122.04"/>
	<path class="st13" d="M540.09,175.29L501.07,168l5.75-30.76c1.13-6.02-2.84-11.82-8.87-12.94c-6.02-1.12-11.82,2.84-12.94,8.87
		l-5.75,30.76l-37.56-7.02c-6.02-1.13-11.82,2.84-12.94,8.87c-0.27,1.42-0.23,2.83,0.04,4.17l-6.75,32.21
		c-0.75,1.17-1.3,2.49-1.57,3.94c-1.13,6.02,2.84,11.82,8.87,12.94l38.29,7.15l21.81,4.08l27.54,5.15l-3.49,18.69l-27.54-5.15
		l-21.81-4.08l-38.29-7.16c-6.02-1.13-11.82,2.84-12.94,8.87c-1.13,6.02,2.84,11.82,8.87,12.94l38.29,7.16l-5.74,30.72
		c-1.13,6.02,2.84,11.82,8.87,12.94c6.02,1.13,11.82-2.84,12.94-8.87l5.74-30.72l38.29,7.16c6.02,1.13,11.82-2.84,12.94-8.87h0
		c0.03-0.17,0.02-0.34,0.04-0.51c0.25-0.64,0.46-1.3,0.59-2l6.56-35.13c0.14-0.75,0.2-1.49,0.19-2.22c0.05-0.21,0.14-0.41,0.18-0.63
		c1.13-6.02-2.84-11.82-8.87-12.94l-38.29-7.16l-21.81-4.08l-26.42-4.94l3.89-18.57l26.02,4.86l21.81,4.08l39.02,7.29
		c6.02,1.13,11.82-2.84,12.94-8.87C550.09,182.21,546.12,176.41,540.09,175.29z"/>
</g>
</svg>
