<?xml version="1.0" encoding="utf-8"?>
<!-- Generator: Adobe Illustrator 28.2.0, SVG Export Plug-In . SVG Version: 6.00 Build 0)  -->
<svg version="1.1" baseProfile="basic" id="Layer_1"
	 xmlns="http://www.w3.org/2000/svg" xmlns:xlink="http://www.w3.org/1999/xlink" x="0px" y="0px" viewBox="0 0 970 970"
	 xml:space="preserve">
<style type="text/css">
	.st0{fill:#4860F9;}
	.st1{fill:#FFFFFF;}
</style>
<path class="st0" d="M791.55,970H178.45C79.89,970,0,890.11,0,791.55V178.45C0,79.89,79.89,0,178.45,0h613.11
	C890.11,0,970,79.89,970,178.45v613.11C970,890.11,890.11,970,791.55,970z"/>
<g>
	<g>
		<path class="st1" d="M693.92,409.08H590.6c-1.89-13.36-5.74-25.28-11.56-35.74c-5.82-10.46-13.29-19.38-22.41-26.77
			c-9.12-7.39-19.62-13.05-31.49-16.98c-11.88-3.93-24.73-5.9-38.57-5.9c-25,0-46.79,6.17-65.34,18.52
			c-18.56,12.35-32.95,30.27-43.17,53.78c-10.22,23.51-15.33,52.01-15.33,85.51c0,34.44,5.15,63.38,15.45,86.81
			c10.3,23.43,24.73,41.12,43.28,53.07c18.55,11.95,40.02,17.93,64.4,17.93c13.68,0,26.38-1.81,38.1-5.42
			c11.71-3.62,22.13-8.92,31.25-15.92c9.12-7,16.71-15.53,22.76-25.59c6.05-10.06,10.26-21.54,12.62-34.44l103.32,0.47
			c-2.68,22.17-9.32,43.52-19.93,64.04c-10.61,20.52-24.85,38.84-42.69,54.96c-17.85,16.12-39.08,28.86-63.69,38.21
			c-24.61,9.35-52.41,14.04-83.38,14.04c-43.09,0-81.58-9.75-115.47-29.25c-33.89-19.5-60.62-47.73-80.2-84.68
			c-19.58-36.95-29.37-81.69-29.37-134.22c0-52.68,9.91-97.5,29.72-134.45c19.81-36.95,46.71-65.14,80.67-84.56
			c33.97-19.42,72.18-29.13,114.64-29.13c27.99,0,53.98,3.93,77.96,11.79c23.98,7.87,45.25,19.31,63.81,34.32
			c18.55,15.02,33.69,33.38,45.41,55.08C683.11,356.24,690.62,381.09,693.92,409.08z"/>
	</g>
</g>
</svg>
